Coordinates
nRows=452
nColumns=2
inDegrees=yes
endheader
time	ankle_angle_r	
5.92137	  9.472573	
5.95464	  9.420750	
5.9879	  9.484532	
6.02117	  9.546312	
6.05444	  9.460449	
6.0877	  9.511529	
6.12097	  9.524039	
6.15423	  9.508684	
6.1875	  9.526207	
6.22077	  9.536743	
6.25403	  9.536743	
6.2873	  9.549931	
6.32056	  9.550027	
6.35383	  9.506226	
6.3871	  9.567261	
6.42036	  9.580834	
6.45363	  9.531980	
6.4869	  9.550510	
6.52016	  9.553396	
6.55343	  9.538041	
6.58669	  9.582520	
6.61996	  9.565052	
6.65323	  9.507234	
6.68649	  9.567261	
6.71976	  9.568075	
6.75302	  9.476426	
6.78629	  9.566018	
6.81956	  9.567261	
6.85282	  9.521484	
6.88609	  9.537074	
6.91935	  9.536743	
6.95262	  9.521347	
6.98589	  9.521484	
7.01915	  9.536743	
7.05242	  9.445190	
7.08569	  9.521733	
7.11895	  9.581828	
7.15222	  9.429932	
7.18548	  9.476787	
7.21875	  9.490967	
7.25202	  9.490967	
7.28528	  9.490967	
7.31855	  9.414673	
7.35181	  9.447235	
7.38508	  9.477946	
7.41835	  9.478140	
7.45161	  9.399414	
7.48488	  9.477118	
7.51815	  9.507731	
7.55141	  9.492569	
7.58468	  9.475708	
7.61794	  9.418265	
7.65121	  9.489074	
7.68448	  9.508215	
7.71774	  9.479880	
7.75101	  9.462632	
7.78427	  9.521484	
7.81754	  9.460449	
7.85081	  9.450136	
7.88407	  9.447760	
7.91734	  9.389487	
7.9506	  9.422961	
7.98387	  9.432791	
8.01714	  9.405804	
8.0504	  9.426879	
8.08367	  9.478858	
8.11694	  9.405907	
8.1502	  9.387498	
8.18347	  9.429932	
8.21673	  9.426395	
8.25	  9.468442	
8.28327	  9.456719	
8.31653	  9.441364	
8.3498	  9.426442	
8.38306	  9.429932	
8.41633	  9.441074	
8.4496	  9.425718	
8.48286	  9.484327	
8.51613	  9.456042	
8.5494	  9.440687	
8.58266	  9.445190	
8.61593	  9.440494	
8.64919	  9.460449	
8.68246	  9.475708	
8.71573	  9.424945	
8.74899	  9.384155	
8.78226	  9.455269	
8.81552	  9.409396	
8.84879	  9.374269	
8.88206	  9.475708	
8.91532	  9.378589	
8.94859	  9.405078	
8.98185	  9.454689	
9.01512	  9.435788	
9.04839	  9.396812	
9.08165	  9.469658	
9.11492	  9.436078	
9.14819	  9.402185	
9.18145	  9.460449	
9.21472	  9.377718	
9.24798	  9.410331	
9.28125	  9.445190	
9.31452	  9.460449	
9.34778	  9.460449	
9.38105	  9.506226	
9.41431	  9.453432	
9.44758	  9.529630	
9.48085	  9.429932	
9.51411	  9.422625	
9.54738	  9.460900	
9.58065	  9.460192	
9.61391	  9.422270	
9.64718	  9.521356	
9.68044	  9.514016	
9.71371	  9.521484	
9.74698	  9.528050	
9.78024	  9.521484	
9.81351	  9.506226	
9.84677	  9.567261	
9.88004	  9.535260	
9.91331	  9.492642	
9.94657	  9.536743	
9.97984	  9.567261	
10.0131	  9.530242	
10.0464	  9.560856	
10.0796	  9.567261	
10.1129	  9.521484	
10.1462	  9.552002	
10.1794	  9.552002	
10.2127	  9.521484	
10.246	  9.552002	
10.2792	  9.571064	
10.3125	  9.506226	
10.3458	  9.547812	
10.379	  9.561823	
10.4123	  9.521484	
10.4456	  9.521484	
10.4788	  9.567261	
10.5121	  9.490967	
10.5454	  9.572215	
10.5786	  9.552688	
10.6119	  9.496703	
10.6452	  9.527414	
10.6784	  9.507781	
10.7117	  9.464920	
10.745	  9.453939	
10.7782	  9.512929	
10.8115	  9.521484	
10.8448	  9.482799	
10.878	  9.498250	
10.9113	  9.418259	
10.9446	  9.460449	
10.9778	  9.426234	
11.0111	  9.418274	
11.0444	  9.506226	
11.0776	  9.407858	
11.1109	  9.414673	
11.1442	  9.441977	
11.1774	  9.310979	
11.2107	  9.381135	
11.244	  9.387079	
11.2772	  9.335551	
11.3105	  9.429932	
11.3437	  9.429932	
11.377	  9.401952	
11.4103	  9.417113	
11.4435	  9.447535	
11.4768	  9.403909	
11.5101	  9.427781	
11.5433	  9.399414	
11.5766	  9.412716	
11.6099	  9.445190	
11.6431	  9.433459	
11.6764	  9.443523	
11.7097	  9.428361	
11.7429	  9.489493	
11.7762	  9.459072	
11.8095	  9.398133	
11.8427	  9.475708	
11.876	  9.386330	
11.9093	  9.459459	
11.9425	  9.520591	
11.9758	  9.443597	
12.0091	  9.445190	
12.0423	  9.490967	
12.0756	  9.490460	
12.1089	  9.445190	
12.1421	  9.506852	
12.1754	  9.506009	
12.2087	  9.491087	
12.2419	  9.506249	
12.2752	  9.475781	
12.3085	  9.490967	
12.3417	  9.506226	
12.375	  9.460813	
12.4083	  9.506226	
12.4415	  9.521484	
12.4748	  9.519525	
12.5081	  9.519235	
12.5413	  9.521484	
12.5746	  9.491910	
12.6079	  9.534663	
12.6411	  9.506226	
12.6744	  9.492200	
12.7077	  9.550672	
12.7409	  9.550575	
12.7742	  9.506226	
12.8075	  9.539984	
12.8407	  9.552002	
12.874	  9.489153	
12.9073	  9.508136	
12.9405	  9.477715	
12.9738	  9.475708	
13.0071	  9.486567	
13.0403	  9.488669	
13.0736	  9.401808	
13.1069	  9.498755	
13.1401	  9.516311	
13.1734	  9.442507	
13.2067	  9.402195	
13.2399	  9.530989	
13.2732	  9.503252	
13.3065	  9.478779	
13.3397	  9.518317	
13.373	  9.438663	
13.4062	  9.494328	
13.4395	  9.552002	
13.4728	  9.506226	
13.506	  9.506226	
13.5393	  9.552002	
13.5726	  9.510070	
13.6058	  9.464390	
13.6391	  9.536743	
13.6724	  9.521484	
13.7056	  9.547771	
13.7389	  9.545398	
13.7722	  9.510650	
13.8054	  9.515267	
13.8387	  9.500202	
13.872	  9.495681	
13.9052	  9.557639	
13.9385	  9.536207	
13.9718	  9.511230	
14.005	  9.526586	
14.0383	  9.511757	
14.0716	  9.506226	
14.1048	  9.536743	
14.1381	  9.485479	
14.1714	  9.496552	
14.2046	  9.513691	
14.2379	  9.490967	
14.2712	  9.472198	
14.3044	  9.512197	
14.3377	  9.500157	
14.371	  9.503296	
14.4042	  9.460449	
14.4375	  9.460449	
14.4708	  9.475708	
14.504	  9.497518	
14.5373	  9.460449	
14.5706	  9.414673	
14.6038	  9.497808	
14.6371	  9.460449	
14.6704	  9.429932	
14.7036	  9.467581	
14.7369	  9.376124	
14.7702	  9.452515	
14.8034	  9.429932	
14.8367	  9.399414	
14.87	  9.422317	
14.9032	  9.475708	
14.9365	  9.414315	
14.9698	  9.407319	
15.003	  9.468451	
15.0363	  9.453289	
15.0696	  9.406478	
15.1028	  9.452158	
15.1361	  9.414673	
15.1694	  9.384155	
15.2026	  9.460449	
15.2359	  9.368896	
15.2692	  9.366606	
15.3024	  9.475708	
15.3357	  9.368896	
15.369	  9.372219	
15.4022	  9.475708	
15.4355	  9.457191	
15.4687	  9.466352	
15.502	  9.454642	
15.5353	  9.433770	
15.5685	  9.445190	
15.6018	  9.536743	
15.6351	  9.482130	
15.6683	  9.500902	
15.7016	  9.521484	
15.7349	  9.516486	
15.7681	  9.531551	
15.8014	  9.516099	
15.8347	  9.490229	
15.8679	  9.552002	
15.9012	  9.530778	
15.9345	  9.490967	
15.9677	  9.556456	
16.001	  9.562904	
16.0343	  9.525744	
16.0675	  9.521484	
16.1008	  9.552002	
16.1341	  9.521484	
16.1673	  9.574773	
16.2006	  9.552002	
16.2339	  9.502545	
16.2671	  9.555585	
16.3004	  9.575546	
16.3337	  9.506226	
16.3669	  9.560675	
16.4002	  9.555199	
16.4335	  9.536743	
16.4667	  9.539746	
16.5	  9.579613	
16.5333	  9.533934	
16.5665	  9.552002	
16.5998	  9.557235	
16.6331	  9.534224	
16.6663	  9.562415	
16.6996	  9.567261	
16.7329	  9.429932	
16.7661	  9.462583	
16.7994	  9.565225	
16.8327	  9.475708	
16.8659	  9.521484	
16.8992	  9.490967	
16.9325	  9.414673	
16.9657	  9.519932	
16.999	  9.458993	
17.0323	  9.443831	
17.0655	  9.502438	
17.0988	  9.473376	
17.1321	  9.460449	
17.1653	  9.519539	
17.1986	  9.414673	
17.2319	  9.445190	
17.2651	  9.505543	
17.2984	  9.431689	
17.3317	  9.445190	
17.3649	  9.490967	
17.3982	  9.475708	
17.4315	  9.444792	
17.4647	  9.460346	
17.498	  9.460455	
17.5312	  9.368987	
17.5645	  9.475896	
17.5978	  9.430216	
17.631	  9.415435	
17.6643	  9.429932	
17.6976	  9.461023	
17.7308	  9.355651	
17.7641	  9.413137	
17.7974	  9.368896	
17.8306	  9.370818	
17.8639	  9.430989	
17.8972	  9.400568	
17.9304	  9.384155	
17.9637	  9.460449	
17.997	  9.428487	
18.0302	  9.384155	
18.0635	  9.451741	
18.0968	  9.412938	
18.13	  9.399414	
18.1633	  9.445190	
18.1966	  9.429932	
18.2298	  9.434175	
18.2631	  9.429932	
18.2964	  9.412358	
18.3296	  9.483733	
18.3629	  9.460449	
18.3962	  9.447795	
18.4294	  9.409270	
18.4627	  9.411875	
18.496	  9.500436	
18.5292	  9.399414	
18.5625	  9.506226	
18.5958	  9.433116	
18.629	  9.426650	
18.6623	  9.414673	
18.6956	  9.414673	
18.7288	  9.468565	
18.7621	  9.448858	
18.7954	  9.460449	
18.8286	  9.422209	
18.8619	  9.506226	
18.8952	  9.502171	
18.9284	  9.445190	
18.9617	  9.467212	
18.995	  9.471363	
19.0282	  9.521484	
19.0615	  9.419211	
19.0948	  9.414673	
19.128	  9.450986	
19.1613	  9.450019	
19.1946	  9.440749	
19.2278	  9.516462	
19.2611	  9.506226	
19.2944	  9.531528	
19.3276	  9.546690	
19.3609	  9.517043	
19.3942	  9.464698	
19.4274	  9.556057	
19.4607	  9.546304	
19.494	  9.475708	
19.5272	  9.518009	
19.5605	  9.570542	
19.5937	  9.527570	
19.627	  9.545820	
19.6603	  9.576241	
19.6935	  9.512601	
19.7268	  9.552002	
19.7601	  9.545433	
19.7933	  9.506226	
19.8266	  9.552002	
19.8599	  9.582520	
19.8931	  9.513181	
19.9264	  9.536743	
19.9597	  9.559151	
19.9929	  9.513472	
20.0262	  9.536743	
20.0595	  9.536363	
20.0927	  9.513948	
20.126	  9.559628	
20.1593	  9.514153	
20.1925	  9.453016	
20.2258	  9.552002	
20.2591	  9.546321	
20.2923	  9.460449	
20.3256	  9.507392	
20.3589	  9.484017	
20.3921	  9.499372	
20.4254	  9.467205	
20.4587	  9.462389	
20.4919	  9.471278	
20.5252	  9.453983	
20.5585	  9.503706	
20.5917	  9.454176	
20.625	  9.484791	
20.6583	  9.402514	
20.6915	  9.417966	
20.7248	  9.405300	
20.7581	  9.389945	
20.7913	  9.328813	
20.8246	  9.460449	
20.8579	  9.399414	
20.8911	  9.439788	
20.9244	  9.414673	
